<mxfile host="65bd71144e">
    <diagram id="HIP3nbAZw_EuaXWnEj3U" name="Page-1">
        <mxGraphModel dx="576" dy="695" grid="1" gridSize="10" guides="1" tooltips="1" connect="1" arrows="1" fold="1" page="1" pageScale="1" pageWidth="850" pageHeight="1100" math="0" shadow="0">
            <root>
                <mxCell id="0"/>
                <mxCell id="1" parent="0"/>
                <mxCell id="7" value="http://ics2o.mths.ca" style="swimlane;whiteSpace=wrap;html=1;startSize=23;" parent="1" vertex="1">
                    <mxGeometry x="40" y="40" width="760" height="480" as="geometry"/>
                </mxCell>
                <mxCell id="8" value="Get the wather" style="rounded=1;whiteSpace=wrap;html=1;" vertex="1" parent="7">
                    <mxGeometry y="20" width="760" height="30" as="geometry"/>
                </mxCell>
                <mxCell id="9" value="Type of the weather" style="text;html=1;align=center;verticalAlign=middle;resizable=0;points=[];autosize=1;strokeColor=none;fillColor=none;" vertex="1" parent="7">
                    <mxGeometry x="10" y="65" width="130" height="30" as="geometry"/>
                </mxCell>
                <mxCell id="10" value="The timptether&amp;nbsp;" style="text;html=1;align=center;verticalAlign=middle;resizable=0;points=[];autosize=1;strokeColor=none;fillColor=none;" vertex="1" parent="7">
                    <mxGeometry x="20" y="95" width="100" height="30" as="geometry"/>
                </mxCell>
                <mxCell id="11" value="" style="shape=image;verticalLabelPosition=bottom;labelBackgroundColor=default;verticalAlign=top;aspect=fixed;imageAspect=0;image=data:image/png,iVBORw0KGgoAAAANSUhEUgAAAGQAAABkCAYAAABw4pVUAAADeElEQVR4nO3cWYiOURzH8a8tichYQ1HihkKWbBe2GNxQlEQiypVSRLlQ3LmTC2UpceFKSZZBQvY1O7mwl0RZQkLRyaEhxjve5/z/58nvU2+jTM/vzPzmfbZznhcRERERERERERERERERERERERERETNNrIJqa6cUtakaYDQwGOgPdAPax/9rCrwGngPXgavAKeBhEcF1dfuL2EyDmidPKEZfYAIwLnQLtK5gq5Pr/fsYsBc4CZzL+QfNvZBewBpgbpXbGRNfwVFgFXCmgPEVrmmOgwI6ATuAewWU8auxwGngCDC04G1XLcdCZgG3gDmJj3Fh93ceWJ4wo9FyK2QTsBPoaJi5DjiRy+47p0LqgEVO2aPju7KnU/4PORTSPB5oJzmPo0/chbmWkkMhB+udAXnrDJz13H15F7I5Hlxz0hW4ALTwGJNnIdOBhY75DRkIrPUI9iqkLbDNKbtSKzx2pV6FbIml5M78j8ajkA7ATIfcfxHOuKZaBnoUstEhsxpbgWZWYdaF9CzRu+O7LsBEqzDrQiZX8D05Kmwy52+sC6k1zivKbKuLRctC2lgfIAtUE2/bJ2dZyJgSzVD+jsm727KQ4YZZKQyyCLEspJ9hVgqdLEIsC+lumJVCJQsrqmZZSDvDrBRaWoRYFvLFMKu0LAvJdYVLVix/Se9K8PtoyGeLEMtCnhpmpfDWIsSykDuGWSm8sgixLOSiYVYKtyxCLAs5YpiVwmGLEMtCnsXV52X0MS7kS876VHRPSQvZBbyxCLIuxORtn8A+qyDrQq7E5Zpl8glI/+hU5HH1vMAhsxrhcYWXVmEehdws0Snwe2C9ZaDX/aX5TrmNtcQ60KuQG8BKp+xK7Y5rskx53oFdF5/1y1F4tHqxx7g8CwnzI6OAx45j+JMR8ULWXA5zFCOBFxmM47vwJNdtr/AcCnkCDAMeZDCWsG7skOcAcpnFux9XpVx2yg/XGQMsLwD/JKdp1XDOPzx+coOl7fGJqWu+P/43uc1zh9sUq+MqwUuJsx7H64x5wKPEWRXLdeFBeDJ3CDADuFvwtsNd22VAb2BDwduuWu5rbXfF1zRgfPza4x+28zZe6IUD9oHMzup+UpbFz7vja2m9j2kaFJd3hlX1reL3hc9G+RCPRy/itOvxOFuZbQkiIiIiIiIiIiIiIiIiIiIiIiIi/wfgKw42dDZq2n0SAAAAAElFTkSuQmCC;" vertex="1" parent="7">
                    <mxGeometry x="650" y="50" width="100" height="100" as="geometry"/>
                </mxCell>
            </root>
        </mxGraphModel>
    </diagram>
</mxfile>